<svg width="64" height="64" viewBox="0 0 64 64" fill="none" xmlns="http://www.w3.org/2000/svg">
  <defs>
    <linearGradient id="admin-bg" x1="8" y1="6" x2="56" y2="58" gradientUnits="userSpaceOnUse">
      <stop stop-color="#6F1D2A"/>
      <stop offset="0.58" stop-color="#8F2D3C"/>
      <stop offset="1" stop-color="#D6AD5C"/>
    </linearGradient>
    <linearGradient id="admin-card" x1="18" y1="18" x2="48" y2="48" gradientUnits="userSpaceOnUse">
      <stop stop-color="#FFF8EE"/>
      <stop offset="1" stop-color="#F3E2C0"/>
    </linearGradient>
  </defs>

  <rect x="4" y="4" width="56" height="56" rx="18" fill="url(#admin-bg)"/>
  <rect x="4.75" y="4.75" width="54.5" height="54.5" rx="17.25" stroke="#FFF8EE" stroke-opacity="0.3" stroke-width="1.5"/>
  <circle cx="46.5" cy="18.5" r="8.5" fill="#E3C164"/>
  <path d="M10 45.5L21.5 34L32.5 39.5L44 31.5L54 37.5V60H10V45.5Z" fill="#2E0E16"/>
  <path d="M12 23C12 18.5817 15.5817 15 20 15H44C48.4183 15 52 18.5817 52 23V41C52 45.4183 48.4183 49 44 49H20C15.5817 49 12 45.4183 12 41V23Z" fill="url(#admin-card)"/>
  <rect x="18" y="21" width="18" height="4.5" rx="2.25" fill="#7A1D2D"/>
  <circle cx="44.5" cy="23.25" r="2.25" fill="#D6AD5C"/>
  <rect x="18" y="30" width="28" height="4.5" rx="2.25" fill="#D6AD5C"/>
  <circle cx="49.5" cy="32.25" r="2.25" fill="#7A1D2D"/>
  <rect x="18" y="39" width="12" height="4.5" rx="2.25" fill="#7A1D2D"/>
  <rect x="33" y="39" width="13" height="4.5" rx="2.25" fill="#D6AD5C"/>
</svg>
