<svg width="64" height="64" viewBox="0 0 64 64" fill="none" xmlns="http://www.w3.org/2000/svg">
  <defs>
    <linearGradient id="front-bg" x1="8" y1="8" x2="56" y2="56" gradientUnits="userSpaceOnUse">
      <stop stop-color="#7A1D2D"/>
      <stop offset="0.58" stop-color="#B55A48"/>
      <stop offset="1" stop-color="#D6AD5C"/>
    </linearGradient>
    <linearGradient id="front-bubble" x1="18" y1="18" x2="46" y2="44" gradientUnits="userSpaceOnUse">
      <stop stop-color="#FFF7EA" stop-opacity="0.98"/>
      <stop offset="1" stop-color="#F4DFC4" stop-opacity="0.92"/>
    </linearGradient>
  </defs>
  <rect x="4" y="4" width="56" height="56" rx="18" fill="url(#front-bg)"/>
  <path d="M20 18.5H36.8C44.1 18.5 49 23.2 49 30.3C49 37.6 43.9 42.7 36.7 42.7H31L21.7 49.1L23.2 42.7H20C14.9 42.7 11 38.8 11 33.7V27.5C11 22.4 14.9 18.5 20 18.5Z" fill="url(#front-bubble)"/>
  <circle cx="22" cy="30.6" r="2.2" fill="#7A1D2D"/>
  <circle cx="30" cy="30.6" r="2.2" fill="#7A1D2D"/>
  <circle cx="38" cy="30.6" r="2.2" fill="#7A1D2D"/>
  <path d="M47.2 14L48.7 18.3L53 19.8L48.7 21.3L47.2 25.6L45.7 21.3L41.4 19.8L45.7 18.3L47.2 14Z" fill="#FFF7EA"/>
</svg>
