<svg width="64" height="64" viewBox="0 0 64 64" fill="none" xmlns="http://www.w3.org/2000/svg">
  <defs>
    <linearGradient id="front-bg" x1="8" y1="6" x2="56" y2="58" gradientUnits="userSpaceOnUse">
      <stop stop-color="#6F1D2A"/>
      <stop offset="0.58" stop-color="#8F2D3C"/>
      <stop offset="1" stop-color="#D6AD5C"/>
    </linearGradient>
    <linearGradient id="front-sheen" x1="12" y1="12" x2="52" y2="52" gradientUnits="userSpaceOnUse">
      <stop stop-color="#FFF8EE" stop-opacity="0.32"/>
      <stop offset="1" stop-color="#FFF8EE" stop-opacity="0"/>
    </linearGradient>
  </defs>

  <rect x="4" y="4" width="56" height="56" rx="18" fill="url(#front-bg)"/>
  <rect x="4.75" y="4.75" width="54.5" height="54.5" rx="17.25" stroke="#FFF8EE" stroke-opacity="0.3" stroke-width="1.5"/>
  <path d="M11 11H53V53H11V11Z" fill="url(#front-sheen)"/>
  <circle cx="46.5" cy="18.5" r="8.5" fill="#E3C164"/>
  <path d="M10 45.5L21.5 34L32.5 39.5L44 31.5L54 37.5V60H10V45.5Z" fill="#2E0E16"/>
  <path d="M10 50L24 41L36.5 47L54 38V60H10V50Z" fill="#4F1521"/>
  <path d="M12 55L26.5 47L38.5 53.5L54 45.5V60H12V55Z" fill="#7A1D2D"/>
  <path d="M15 17.5H26.5" stroke="#D6AD5C" stroke-width="2.5" stroke-linecap="round"/>
  <path d="M15 17.5V29" stroke="#D6AD5C" stroke-width="2.5" stroke-linecap="round"/>
</svg>
